<mxfile host="app.diagrams.net" agent="Mozilla/5.0 (Windows NT 10.0; Win64; x64) AppleWebKit/537.36 (KHTML, like Gecko) Chrome/129.0.0.0 Safari/537.36 Edg/129.0.0.0" version="24.7.17">
  <diagram name="Page-1" id="-LS6jtXnKP-yvh6ICg8L">
    <mxGraphModel dx="1213" dy="768" grid="1" gridSize="10" guides="1" tooltips="1" connect="1" arrows="1" fold="1" page="1" pageScale="1" pageWidth="850" pageHeight="1100" math="0" shadow="0">
      <root>
        <mxCell id="0" />
        <mxCell id="1" parent="0" />
        <mxCell id="mxvi7i06FaTyoHRG-8UF-1" value="" style="sketch=0;aspect=fixed;pointerEvents=1;shadow=0;dashed=0;html=1;strokeColor=none;labelPosition=center;verticalLabelPosition=bottom;verticalAlign=top;align=center;fillColor=#00188D;shape=mxgraph.mscae.enterprise.client_application" vertex="1" parent="1">
          <mxGeometry x="100" y="320" width="50" height="32" as="geometry" />
        </mxCell>
        <mxCell id="mxvi7i06FaTyoHRG-8UF-2" value="" style="sketch=0;aspect=fixed;pointerEvents=1;shadow=0;dashed=0;html=1;strokeColor=none;labelPosition=center;verticalLabelPosition=bottom;verticalAlign=top;align=center;fillColor=#00188D;shape=mxgraph.mscae.enterprise.client_application" vertex="1" parent="1">
          <mxGeometry x="100" y="430" width="50" height="32" as="geometry" />
        </mxCell>
        <mxCell id="mxvi7i06FaTyoHRG-8UF-42" style="edgeStyle=orthogonalEdgeStyle;rounded=0;orthogonalLoop=1;jettySize=auto;html=1;" edge="1" parent="1" source="mxvi7i06FaTyoHRG-8UF-5">
          <mxGeometry relative="1" as="geometry">
            <mxPoint x="320" y="391" as="targetPoint" />
          </mxGeometry>
        </mxCell>
        <mxCell id="mxvi7i06FaTyoHRG-8UF-5" value="SLB" style="image;sketch=0;aspect=fixed;html=1;points=[];align=center;fontSize=12;image=img/lib/mscae/Cloud_Service.svg;" vertex="1" parent="1">
          <mxGeometry x="220" y="370" width="50" height="42" as="geometry" />
        </mxCell>
        <mxCell id="mxvi7i06FaTyoHRG-8UF-44" style="edgeStyle=orthogonalEdgeStyle;rounded=0;orthogonalLoop=1;jettySize=auto;html=1;entryX=0;entryY=0.5;entryDx=0;entryDy=0;" edge="1" parent="1" source="mxvi7i06FaTyoHRG-8UF-6" target="mxvi7i06FaTyoHRG-8UF-18">
          <mxGeometry relative="1" as="geometry" />
        </mxCell>
        <mxCell id="mxvi7i06FaTyoHRG-8UF-6" value="SLB" style="image;sketch=0;aspect=fixed;html=1;points=[];align=center;fontSize=12;image=img/lib/mscae/Cloud_Service.svg;" vertex="1" parent="1">
          <mxGeometry x="470" y="370" width="50" height="42" as="geometry" />
        </mxCell>
        <mxCell id="mxvi7i06FaTyoHRG-8UF-7" value="OB" style="image;sketch=0;aspect=fixed;html=1;points=[];align=center;fontSize=12;image=img/lib/mscae/SQL_Database_generic.svg;" vertex="1" parent="1">
          <mxGeometry x="590" y="500" width="38" height="50" as="geometry" />
        </mxCell>
        <mxCell id="mxvi7i06FaTyoHRG-8UF-8" value="redis" style="image;sketch=0;aspect=fixed;html=1;points=[];align=center;fontSize=12;image=img/lib/mscae/Cache_Redis_Product.svg;" vertex="1" parent="1">
          <mxGeometry x="660" y="504" width="50" height="42" as="geometry" />
        </mxCell>
        <mxCell id="mxvi7i06FaTyoHRG-8UF-13" value="" style="group" vertex="1" connectable="0" parent="1">
          <mxGeometry x="320" y="291" width="92" height="200" as="geometry" />
        </mxCell>
        <mxCell id="mxvi7i06FaTyoHRG-8UF-12" value="..." style="whiteSpace=wrap;html=1;" vertex="1" parent="mxvi7i06FaTyoHRG-8UF-13">
          <mxGeometry width="92" height="200" as="geometry" />
        </mxCell>
        <mxCell id="mxvi7i06FaTyoHRG-8UF-3" value="" style="sketch=0;aspect=fixed;pointerEvents=1;shadow=1;dashed=0;html=1;strokeColor=none;labelPosition=center;verticalLabelPosition=bottom;verticalAlign=top;align=center;fillColor=#00188D;shape=mxgraph.mscae.enterprise.web_server" vertex="1" parent="mxvi7i06FaTyoHRG-8UF-13">
          <mxGeometry x="27" y="130" width="38" height="50" as="geometry" />
        </mxCell>
        <mxCell id="mxvi7i06FaTyoHRG-8UF-11" value="" style="sketch=0;aspect=fixed;pointerEvents=1;shadow=1;dashed=0;html=1;strokeColor=none;labelPosition=center;verticalLabelPosition=bottom;verticalAlign=top;align=center;fillColor=#00188D;shape=mxgraph.mscae.enterprise.web_server" vertex="1" parent="mxvi7i06FaTyoHRG-8UF-13">
          <mxGeometry x="22" y="10" width="38" height="50" as="geometry" />
        </mxCell>
        <mxCell id="mxvi7i06FaTyoHRG-8UF-16" value="SSO前端" style="text;html=1;align=center;verticalAlign=middle;resizable=0;points=[];autosize=1;strokeColor=none;fillColor=none;" vertex="1" parent="1">
          <mxGeometry x="331" y="261" width="70" height="30" as="geometry" />
        </mxCell>
        <mxCell id="mxvi7i06FaTyoHRG-8UF-19" value="" style="group" vertex="1" connectable="0" parent="1">
          <mxGeometry x="600" y="356" width="170" height="70" as="geometry" />
        </mxCell>
        <mxCell id="mxvi7i06FaTyoHRG-8UF-18" value="..." style="whiteSpace=wrap;html=1;" vertex="1" parent="mxvi7i06FaTyoHRG-8UF-19">
          <mxGeometry width="170" height="70" as="geometry" />
        </mxCell>
        <mxCell id="mxvi7i06FaTyoHRG-8UF-4" value="" style="sketch=0;aspect=fixed;pointerEvents=1;shadow=0;dashed=0;html=1;strokeColor=none;labelPosition=center;verticalLabelPosition=bottom;verticalAlign=top;align=center;fillColor=#00188D;shape=mxgraph.mscae.enterprise.database_server" vertex="1" parent="mxvi7i06FaTyoHRG-8UF-19">
          <mxGeometry x="10" y="12" width="38" height="50" as="geometry" />
        </mxCell>
        <mxCell id="mxvi7i06FaTyoHRG-8UF-17" value="" style="sketch=0;aspect=fixed;pointerEvents=1;shadow=0;dashed=0;html=1;strokeColor=none;labelPosition=center;verticalLabelPosition=bottom;verticalAlign=top;align=center;fillColor=#00188D;shape=mxgraph.mscae.enterprise.database_server" vertex="1" parent="mxvi7i06FaTyoHRG-8UF-19">
          <mxGeometry x="120" y="12" width="38" height="50" as="geometry" />
        </mxCell>
        <mxCell id="mxvi7i06FaTyoHRG-8UF-20" value="SSO后端" style="text;html=1;align=center;verticalAlign=middle;resizable=0;points=[];autosize=1;strokeColor=none;fillColor=none;" vertex="1" parent="1">
          <mxGeometry x="650" y="330" width="70" height="30" as="geometry" />
        </mxCell>
        <mxCell id="mxvi7i06FaTyoHRG-8UF-21" value="oss" style="image;sketch=0;aspect=fixed;html=1;points=[];align=center;fontSize=12;image=img/lib/mscae/AzureFXTEdgeFiler.svg;" vertex="1" parent="1">
          <mxGeometry x="740" y="500" width="50" height="50" as="geometry" />
        </mxCell>
        <mxCell id="mxvi7i06FaTyoHRG-8UF-23" style="edgeStyle=orthogonalEdgeStyle;rounded=0;orthogonalLoop=1;jettySize=auto;html=1;entryX=0.588;entryY=0.06;entryDx=0;entryDy=0;entryPerimeter=0;" edge="1" parent="1" source="mxvi7i06FaTyoHRG-8UF-18" target="mxvi7i06FaTyoHRG-8UF-7">
          <mxGeometry relative="1" as="geometry" />
        </mxCell>
        <mxCell id="mxvi7i06FaTyoHRG-8UF-24" style="edgeStyle=orthogonalEdgeStyle;rounded=0;orthogonalLoop=1;jettySize=auto;html=1;" edge="1" parent="1" source="mxvi7i06FaTyoHRG-8UF-18" target="mxvi7i06FaTyoHRG-8UF-8">
          <mxGeometry relative="1" as="geometry" />
        </mxCell>
        <mxCell id="mxvi7i06FaTyoHRG-8UF-25" style="edgeStyle=orthogonalEdgeStyle;rounded=0;orthogonalLoop=1;jettySize=auto;html=1;entryX=0.447;entryY=0.047;entryDx=0;entryDy=0;entryPerimeter=0;" edge="1" parent="1" source="mxvi7i06FaTyoHRG-8UF-18" target="mxvi7i06FaTyoHRG-8UF-21">
          <mxGeometry relative="1" as="geometry" />
        </mxCell>
        <mxCell id="mxvi7i06FaTyoHRG-8UF-26" value="" style="group" vertex="1" connectable="0" parent="1">
          <mxGeometry x="840" y="291" width="92" height="200" as="geometry" />
        </mxCell>
        <mxCell id="mxvi7i06FaTyoHRG-8UF-27" value="..." style="whiteSpace=wrap;html=1;" vertex="1" parent="mxvi7i06FaTyoHRG-8UF-26">
          <mxGeometry width="92" height="200" as="geometry" />
        </mxCell>
        <mxCell id="mxvi7i06FaTyoHRG-8UF-28" value="" style="sketch=0;aspect=fixed;pointerEvents=1;shadow=1;dashed=0;html=1;strokeColor=none;labelPosition=center;verticalLabelPosition=bottom;verticalAlign=top;align=center;fillColor=#00188D;shape=mxgraph.mscae.enterprise.web_server" vertex="1" parent="mxvi7i06FaTyoHRG-8UF-26">
          <mxGeometry x="27" y="130" width="38" height="50" as="geometry" />
        </mxCell>
        <mxCell id="mxvi7i06FaTyoHRG-8UF-29" value="" style="sketch=0;aspect=fixed;pointerEvents=1;shadow=1;dashed=0;html=1;strokeColor=none;labelPosition=center;verticalLabelPosition=bottom;verticalAlign=top;align=center;fillColor=#00188D;shape=mxgraph.mscae.enterprise.web_server" vertex="1" parent="mxvi7i06FaTyoHRG-8UF-26">
          <mxGeometry x="22" y="10" width="38" height="50" as="geometry" />
        </mxCell>
        <mxCell id="mxvi7i06FaTyoHRG-8UF-38" style="edgeStyle=orthogonalEdgeStyle;rounded=0;orthogonalLoop=1;jettySize=auto;html=1;entryX=0;entryY=0.476;entryDx=0;entryDy=0;entryPerimeter=0;" edge="1" parent="1" source="mxvi7i06FaTyoHRG-8UF-1" target="mxvi7i06FaTyoHRG-8UF-5">
          <mxGeometry relative="1" as="geometry" />
        </mxCell>
        <mxCell id="mxvi7i06FaTyoHRG-8UF-39" style="edgeStyle=orthogonalEdgeStyle;rounded=0;orthogonalLoop=1;jettySize=auto;html=1;entryX=0;entryY=0.471;entryDx=0;entryDy=0;entryPerimeter=0;" edge="1" parent="1" source="mxvi7i06FaTyoHRG-8UF-2" target="mxvi7i06FaTyoHRG-8UF-5">
          <mxGeometry relative="1" as="geometry" />
        </mxCell>
        <mxCell id="mxvi7i06FaTyoHRG-8UF-40" value="总账、财管、税务前端" style="text;html=1;align=center;verticalAlign=middle;resizable=0;points=[];autosize=1;strokeColor=none;fillColor=none;" vertex="1" parent="1">
          <mxGeometry x="876" y="280" width="140" height="30" as="geometry" />
        </mxCell>
        <mxCell id="mxvi7i06FaTyoHRG-8UF-43" style="edgeStyle=orthogonalEdgeStyle;rounded=0;orthogonalLoop=1;jettySize=auto;html=1;" edge="1" parent="1" source="mxvi7i06FaTyoHRG-8UF-12" target="mxvi7i06FaTyoHRG-8UF-6">
          <mxGeometry relative="1" as="geometry" />
        </mxCell>
        <mxCell id="mxvi7i06FaTyoHRG-8UF-46" style="edgeStyle=orthogonalEdgeStyle;rounded=0;orthogonalLoop=1;jettySize=auto;html=1;entryX=0;entryY=0.5;entryDx=0;entryDy=0;" edge="1" parent="1" source="mxvi7i06FaTyoHRG-8UF-18" target="mxvi7i06FaTyoHRG-8UF-27">
          <mxGeometry relative="1" as="geometry" />
        </mxCell>
      </root>
    </mxGraphModel>
  </diagram>
</mxfile>
